<svg width="248" height="38" viewBox="0 0 248 38" fill="none" xmlns="http://www.w3.org/2000/svg">
<path d="M80.6564 10.4724C87.6124 10.785 91.0513 13.9895 91.0513 20.0076V37.2022H88.6284L88.2377 33.3725C83.8608 35.8736 80.5001 37.1241 78.0772 37.2022C72.9188 37.2022 70.3396 34.3886 70.3396 28.6831C70.4959 23.8373 72.8406 21.3363 77.5301 21.1018H88.0813V18.8352C87.7687 15.24 85.2677 13.2861 80.5001 13.0516C77.999 13.0516 75.4198 13.2079 72.7625 13.5205L72.6062 11.0195C75.498 10.6287 78.1553 10.4724 80.6564 10.4724ZM88.1595 23.6028H77.6082C74.7946 23.8373 73.3877 25.5568 73.2314 28.6831C73.1533 32.7473 74.7946 34.7012 77.999 34.623C80.0311 34.5449 83.3919 33.2162 88.0813 30.4807V23.6028H88.1595Z" fill="white"/>
<path d="M105.98 22.5086L113.561 10.4724H116.922L108.403 23.7592L116.922 37.0459H113.483L105.902 25.0878H106.058L97.8516 37.0459H94.569L103.557 23.7592L94.569 10.4724H97.8516L106.058 22.5086H105.98Z" fill="white"/>
<path d="M122.862 0V5.47102H119.97V0H122.862ZM122.862 10.4731V37.1248H119.97V10.4731H122.862Z" fill="white"/>
<path d="M144.511 37.2022V22.3523C144.433 16.9595 143.104 13.9113 140.447 13.1297H137.946C136.773 13.2079 134.507 14.0676 131.302 15.6308V37.2022H128.332V10.4724H130.833L131.068 12.8171C134.116 11.254 136.383 10.4724 137.789 10.4724H140.525C142.635 10.4724 144.198 11.6447 145.371 13.9113C147.715 11.9574 149.904 10.8632 152.014 10.4724H154.437C159.908 10.4724 162.565 14.4584 162.565 22.3523V37.2022H159.752V22.3523C159.752 16.1779 157.954 13.1297 154.437 13.1297H152.17C151.076 13.2079 149.2 14.2239 146.543 16.1779C147.09 18.6008 147.325 20.6329 147.325 22.3523V37.2022H144.511Z" fill="white"/>
<path d="M186.09 10.861V13.1276L175.539 13.0494C171.552 13.0494 169.52 14.2218 169.52 16.5665V19.302C169.599 20.8652 170.849 21.8031 173.194 21.9594L180.15 22.6628C184.605 23.2881 186.871 25.1639 186.95 28.2902V30.713C186.95 35.0117 184.136 37.1219 178.587 37.1219L167.019 36.7312V34.3864L178.352 34.5428C182.182 34.3864 184.058 33.1359 184.058 30.713V28.2902C183.98 26.8052 182.495 25.7891 179.681 25.242L172.803 24.5386C168.895 24.3041 166.863 22.5065 166.55 19.302V16.4884C166.629 12.4242 169.599 10.3921 175.539 10.3921L186.09 10.861Z" fill="white"/>
<path d="M212.977 22.4292V25.2428C212.977 33.1367 209.617 37.0446 202.973 37.0446H200.16C193.673 37.0446 190.39 33.1367 190.39 25.2428V22.4292C190.39 14.5353 193.594 10.5492 200.16 10.5492H202.973C209.617 10.6274 212.977 14.5353 212.977 22.4292ZM200.16 13.2847C195.705 13.2847 193.516 16.3329 193.516 22.4292V25.2428C193.516 31.4173 195.705 34.4654 200.16 34.4654H202.973C207.663 34.4654 210.008 31.4173 210.008 25.2428V22.4292C210.008 16.3329 207.663 13.2847 202.973 13.2847H200.16Z" fill="white"/>
<path d="M219.464 37.0466V12.9741H216.259V10.4731H219.464V8.12838C219.464 2.65735 222.59 0 228.843 0C230.171 0 231.734 0.234472 233.532 0.703417V3.36077C231.578 2.81367 230.015 2.42288 228.843 2.42288C224.544 2.42288 222.434 4.37682 222.434 8.28469V10.4731H231.969V12.9741H222.434V37.0466H219.464Z" fill="white"/>
<path d="M237.44 4.4565V10.4746H246.975V12.9757H237.44V29.7795C237.518 32.8277 238.534 34.3127 240.644 34.3908L247.21 34.2345V36.5011L240.957 37.0482C236.658 37.0482 234.548 34.469 234.548 29.2324V12.9757H230.953V10.4746H234.548V4.4565H237.44Z" fill="white"/>
<path d="M46.2692 5.15991C47.2071 5.0036 48.2232 4.84728 49.2392 4.76912C45.0187 1.72098 40.4074 0.235991 36.1088 1.40835C24.6196 4.61281 14.4591 37.3608 0 34.6253C7.58128 39.471 14.6155 37.6734 19.4612 31.9679C24.8541 25.6372 28.0585 17.4306 32.3572 12.8975C32.279 12.9757 38.8443 6.33227 46.2692 5.15991Z" fill="white"/>
<path d="M62.8389 24.8587C62.5262 23.2956 62.0573 21.6543 61.3539 20.013C59.0873 14.5419 54.8668 8.99275 50.0992 5.31935C49.8647 5.08488 49.5521 4.92856 49.2395 4.69409C48.2234 4.77225 47.2855 4.92856 46.2695 5.08488C38.8445 6.3354 32.2793 12.9006 32.4356 12.9006C32.4356 12.9006 32.4356 12.8225 32.5138 12.8225C34.1551 11.103 35.8745 9.85249 37.594 9.22723C37.8285 9.14907 38.0629 9.07091 38.2974 9.07091C38.6882 8.99275 39.079 8.91459 39.4698 8.99275C41.8927 9.14907 44.9408 11.0248 47.6763 13.7604C50.2555 16.2614 52.5221 19.544 53.7726 22.8266C55.1794 26.4219 55.2576 29.939 52.991 32.5182C49.3958 36.5042 34.0769 28.7666 33.0609 28.2195C33.7643 28.8447 43.065 36.5823 51.4279 37.8329C53.0692 38.0673 54.6323 38.0673 56.1173 37.7547C57.446 37.4421 58.6184 36.895 59.7907 36.0352C62.9952 33.456 63.6986 29.3919 62.8389 24.8587Z" fill="white"/>
</svg>
