<svg width="40" height="40" viewBox="0 0 40 40" fill="none" xmlns="http://www.w3.org/2000/svg">
<rect width="40" height="40" rx="20" fill="url(#paint0_linear_2478_273)" fill-opacity="0.4"/>
<path fill-rule="evenodd" clip-rule="evenodd" d="M27.1269 19.3009C27.4338 19.6077 27.4338 20.1052 27.1269 20.412L22.4126 25.1263C22.1058 25.4332 21.6083 25.4332 21.3015 25.1263C20.9946 24.8195 20.9946 24.322 21.3015 24.0151L24.6745 20.6422L12.4285 20.6422C11.9945 20.6422 11.6428 20.2904 11.6428 19.8564C11.6428 19.4225 11.9945 19.0707 12.4285 19.0707L24.6745 19.0707L21.3015 15.6977C20.9946 15.3909 20.9946 14.8934 21.3015 14.5866C21.6083 14.2797 22.1058 14.2797 22.4126 14.5866L27.1269 19.3009Z" fill="white" fill-opacity="0.4"/>
<defs>
<linearGradient id="paint0_linear_2478_273" x1="39.4417" y1="40" x2="-12.5959" y2="-12.167" gradientUnits="userSpaceOnUse">
<stop offset="0.6" stop-color="#6A6A6A"/>
</linearGradient>
</defs>
</svg>
