<svg width="64" height="37" viewBox="0 0 64 37" fill="none" xmlns="http://www.w3.org/2000/svg">
<path d="M46.2692 4.1521C47.2071 3.99578 48.2232 3.83947 49.2392 3.76131C45.0187 0.71317 40.4074 -0.771822 36.1088 0.40054C24.6196 3.605 14.4591 36.353 0 33.6175C7.58128 38.4632 14.6155 36.6656 19.4612 30.9601C24.8541 24.6294 28.0585 16.4228 32.3572 11.8897C32.279 11.9678 38.8443 5.32446 46.2692 4.1521Z" fill="white"/>
<path d="M62.8389 23.8509C62.5262 22.2878 62.0573 20.6465 61.3539 19.0051C59.0873 13.5341 54.8668 7.98494 50.0992 4.31154C49.8647 4.07707 49.5521 3.92075 49.2395 3.68628C48.2234 3.76444 47.2855 3.92075 46.2695 4.07707C38.8445 5.32759 32.2793 11.8928 32.4356 11.8928C32.4356 11.8928 32.4356 11.8147 32.5138 11.8147C34.1551 10.0952 35.8745 8.84467 37.594 8.21941C37.8285 8.14126 38.0629 8.0631 38.2974 8.0631C38.6882 7.98494 39.079 7.90678 39.4698 7.98494C41.8927 8.14125 44.9408 10.017 47.6763 12.7525C50.2555 15.2536 52.5221 18.5362 53.7726 21.8188C55.1794 25.4141 55.2576 28.9311 52.991 31.5103C49.3958 35.4964 34.0769 27.7588 33.0609 27.2117C33.7643 27.8369 43.065 35.5745 51.4279 36.825C53.0692 37.0595 54.6323 37.0595 56.1173 36.7469C57.446 36.4343 58.6184 35.8872 59.7907 35.0274C62.9952 32.4482 63.6986 28.384 62.8389 23.8509Z" fill="white"/>
</svg>
