<svg width="95" height="56" viewBox="0 0 95 56" fill="none" xmlns="http://www.w3.org/2000/svg">
<path d="M69.1524 6.20559C70.5541 5.97196 72.0727 5.73834 73.5912 5.62153C67.2834 1.06588 60.3915 -1.15354 53.9669 0.598634C36.7956 5.3879 21.6101 54.3319 0 50.2435C11.3307 57.4858 21.8438 54.7992 29.0861 46.2719C37.1461 36.8102 41.9353 24.545 48.36 17.7699C48.2431 17.8867 58.0553 7.95776 69.1524 6.20559Z" fill="url(#paint0_linear_2804_252)"/>
<path d="M93.9168 35.6468C93.4496 33.3105 92.7487 30.8575 91.6974 28.4044C88.3099 20.2276 82.002 11.934 74.8765 6.44388C74.5261 6.09344 74.0589 5.85982 73.5916 5.50939C72.0731 5.6262 70.6713 5.85982 69.1528 6.09344C58.0557 7.96243 48.2435 17.7746 48.4771 17.7746C48.4771 17.7746 48.4771 17.6578 48.594 17.6578C51.047 15.0879 53.6169 13.2189 56.1867 12.2845C56.5371 12.1676 56.8876 12.0508 57.238 12.0508C57.8221 11.934 58.4061 11.8172 58.9902 11.934C62.6113 12.1676 67.167 14.9711 71.2554 19.0595C75.1102 22.7975 78.4977 27.7036 80.3667 32.6096C82.4693 37.983 82.5861 43.2395 79.1986 47.0943C73.8252 53.0517 50.9302 41.4873 49.4116 40.6696C50.4629 41.6041 64.3635 53.1685 76.8623 55.0375C79.3154 55.3879 81.6516 55.3879 83.871 54.9206C85.8568 54.4534 87.609 53.6357 89.3612 52.3508C94.1504 48.496 95.2017 42.4218 93.9168 35.6468Z" fill="url(#paint1_linear_2804_252)"/>
<defs>
<linearGradient id="paint0_linear_2804_252" x1="0" y1="27.6436" x2="94.4208" y2="27.6436" gradientUnits="userSpaceOnUse">
<stop stop-color="white"/>
<stop offset="0.5" stop-color="#999999"/>
<stop offset="1" stop-color="#F5F5F5"/>
</linearGradient>
<linearGradient id="paint1_linear_2804_252" x1="0" y1="27.6436" x2="94.4208" y2="27.6436" gradientUnits="userSpaceOnUse">
<stop stop-color="white"/>
<stop offset="0.5" stop-color="#999999"/>
<stop offset="1" stop-color="#F5F5F5"/>
</linearGradient>
</defs>
</svg>
